<svg viewBox="0 0 1294.7 205.36">
  <g data-name="Camada 2">
    <g data-name="Camada 1" fill="#012a4d">
      <path d="M855.78 204.87l-4.91-27.07h3.65l4 23.38 14.33-23.38h4L860 204.87zM874.41 204.87l6-27.07h3.36l-6 27.07zM892.19 204.87l-4.91-27.07h3.65l4 23.38 14.32-23.38h4l-16.88 27.07zM928.51 204.87l-1-6h-13.57l-3.69 6h-4l16.84-27.07h4.19l5 27.07zm-3.93-23.58l-8.93 14.57h11.48zM965.69 204.87l-1.05-6h-13.52l-3.69 6h-4l16.84-27.07h4.18l5 27.07zm-3.94-23.58l-8.93 14.57h11.49zM982.29 200.33l3.57-4.22a11.58 11.58 0 009.14 4.22c2.88 0 4-1.71 4-3.09 0-3.77-13.15-3.2-13.15-11 0-4.46 3.9-8.81 10.6-8.81 4.3 0 8.36 1.59 10.75 4.39l-3.57 4.06a10.92 10.92 0 00-8.07-3.45c-2.08 0-3.62 1.3-3.62 2.76 0 3.49 13.23 3.12 13.23 11 0 5-4 9.25-10.67 9.25-5.27-.08-9.93-2.15-12.21-5.11zM1009.36 195.9a11.84 11.84 0 01.21-1.82l3.57-16.28h5.86l-3.53 16.11a5.1 5.1 0 00-.16 1.34c0 2.72 2 5 5.84 5 4.14 0 6.17-2.6 7-6.38l3.57-16.11h5.88L1034 194c-1.46 6.57-4.83 11.32-12.83 11.32-7.83.04-11.81-3.78-11.81-9.42zM1055 204.87l-.69-4.58h-11.6l-2.72 4.58h-6.86l16.44-27.07h7.22l4.46 27.07zm-2.8-21.31l-6.77 11.65h8.4zM1075.44 193.22a15.49 15.49 0 0115.75-15.87c6.61 0 10.43 3.58 12 7.68l-5.56 1.86a6.82 6.82 0 00-6.74-4.42c-5.11 0-9.45 4.46-9.45 10.39 0 4.22 3 7.39 7.63 7.39a8.56 8.56 0 006.37-3.13l4.42 3a13.92 13.92 0 01-11.12 5.24c-7.46 0-13.3-4.75-13.3-12.14zM1102 204.87l6-27.07h5.77l-6 27.07zM1113.15 204.87l6-27.07h10.47a11.62 11.62 0 0111.74 11.65c0 7.1-4.84 15.42-17.54 15.42zm11.69-5.07c6.53 0 10.47-4.59 10.47-10a6.67 6.67 0 00-6.82-6.94h-4.71l-3.73 16.93h4.79zM1160.59 204.87l-.69-4.58h-11.6l-2.72 4.58h-6.86l16.43-27.07h7.23l4.46 27.07zm-2.8-21.31l-6.79 11.65h8.41zM1169.36 204.87l6-27.07h10.47a11.61 11.61 0 0111.73 11.65c0 7.1-4.83 15.42-17.54 15.42zm11.69-5.07c6.53 0 10.47-4.59 10.47-10a6.67 6.67 0 00-6.82-6.94h-4.7l-3.73 16.93h4.79zM1198.5 204.87l6-27.07h19.16l-1.14 5.07h-13.35l-1.26 5.73H1221l-1.14 5.07h-13.07l-1.34 6.13h13.36l-1.1 5.07zM794.91 164.58a1.7 1.7 0 01.46-1.15 1.69 1.69 0 10-1.24 2.85 1.74 1.74 0 001.24-.54 1.72 1.72 0 01-.46-1.16M795 161.88a1.77 1.77 0 011.15.55 1.74 1.74 0 10-2.36-.16 1.73 1.73 0 011.21-.39M799.89 164.86a2 2 0 11-2-2 2 2 0 012 2M780.11 169.37a9.72 9.72 0 003.77 2 7 7 0 008.29-3.83z"/>
      <path d="M780.11 169.37a9.94 9.94 0 013-3.06 7.05 7.05 0 019 1.28zM735 165.46l-.1-.46a.52.52 0 01.63-.39l.29.19.59.4c.41.11.72-.07.86-.64l.65-2.62a.55.55 0 111.06.26l-.66 2.68a1.62 1.62 0 01-2.15 1.32 2.11 2.11 0 01-1.17-.74M739.61 164.73l.3-2.32a.54.54 0 111.08.13l-.29 2.3c-.1.81.25 1.28.92 1.36s1.11-.27 1.21-1l.3-2.34a.55.55 0 011.09.14l-.29 2.29a2 2 0 01-2.45 2 2 2 0 01-1.87-2.47M745.16 163a.54.54 0 01.54-.56h1.73a2 2 0 011.46.48 1.58 1.58 0 01.45 1.13 1.53 1.53 0 01-1 1.54l.78.91.18.42a.5.5 0 01-.51.51l-.54-.27-1.1-1.34h-.87v1.09a.54.54 0 01-.54.56.55.55 0 01-.56-.54zm2.24 1.83c.54 0 .84-.3.83-.72 0-.47-.34-.71-.88-.7h-1.09v1.43zM750.79 166.7l-.64-3.84a.54.54 0 01.45-.63l2.73-.46a.49.49 0 11.16 1l-2.19.37.17 1 1.87-.32a.49.49 0 01.17 1l-1.88.31.17 1 2.23-.38a.49.49 0 11.16 1l-2.76.46a.56.56 0 01-.64-.45M703.44 38.63a3.61 3.61 0 010 3.31 4.55 4.55 0 01-2.83 1.81l.26.2a7.6 7.6 0 004.39 1.05 5.25 5.25 0 012.22-1.84 2.31 2.31 0 011.94 0l.51-.46a6.89 6.89 0 00-6.49-4M694.65 16.26a1.7 1.7 0 101.24 2.85 1.7 1.7 0 01-.46-1.15 1.68 1.68 0 01.46-1.15 1.67 1.67 0 00-1.24-.55M695.56 15.26a1.72 1.72 0 011.15.55 1.75 1.75 0 10-2.36-.17 1.72 1.72 0 011.21-.38M700.41 18.24a2 2 0 10-2 2 2 2 0 002-2M705.93 35.29a2 2 0 102-2 2 2 0 00-2 2M683.65 19.69a9.92 9.92 0 00-3 3 9.85 9.85 0 003.77 2.06A7.06 7.06 0 00692.7 21a7.05 7.05 0 00-9.05-1.28M683.85 14.78a6 6 0 007.77.1 6 6 0 00-6.47-4.3 8.51 8.51 0 00-3.44 1.24 8.32 8.32 0 002.14 3M707.86 10.08a9.9 9.9 0 00-.61-4.25 10 10 0 00-3.92 1.78 7.05 7.05 0 00-1.93 8.92 7 7 0 006.46-6.45M719.71 27a9.82 9.82 0 00-3.91 1.77 7.05 7.05 0 00-1.93 8.93 7 7 0 006.46-6.45 9.71 9.71 0 00-.62-4.25M700.37 5.28a8.37 8.37 0 00-1.29-3.42 8.42 8.42 0 00-2.92 2.2 6 6 0 000 7.76 6 6 0 004.19-6.54M691.73 9.48a3.88 3.88 0 00-.89-4.94 5.43 5.43 0 00-2.11-1 5.36 5.36 0 00-.42 2.33 3.87 3.87 0 003.42 3.66M781.19 158.44a8.35 8.35 0 002.14 3 6 6 0 007.77.09zM781.19 158.44a8.52 8.52 0 013.43-1.23 6 6 0 016.48 4.29zM806.72 152.45a9.78 9.78 0 01.62 4.26 7 7 0 01-6.46 6.45z"/>
      <path d="M806.72 152.45a10 10 0 00-3.91 1.78 7.06 7.06 0 00-1.93 8.93zM798.56 148.49a8.37 8.37 0 011.29 3.42 6 6 0 01-4.19 6.54zM788.13 153.83a3.81 3.81 0 003.08 2.27 3.8 3.8 0 00-.07-4M768.13 146.24l-.95-.17-4.14 6.16-.06.46.42 1.26.22-.57.5-.6-.06-.18 3.34-4.96.76 2.92.43-.26.51-.32-.97-3.74z"/>
      <path d="M761.05 162.35l-2-7.48-.5-.39-5.77-.16 13.28-6.59-3 4.5v.57l1.09 1.73-.2-.45a1.83 1.83 0 01.38-1.83l3.76-5.59-.68-.76-17 8.42.21 1 5.69.15a2 2 0 012.93 1.23c.55 2.28 1.31 4.51 1.75 6.82l6-2.54c-.18-.3-.36-.61-.53-.92zM801.46 146.47a1.93 1.93 0 01-1.2.95c-.32.1-.62.23-.92.34l-.34.24a2.49 2.49 0 01-.92.67c-.88.34-1.72.76-2.58 1.13l1.3 3 5.29-6.37z"/>
      <path d="M801.94 145.85l-.29.05a1.89 1.89 0 01-1 1.32l-3.76 4.53-1-2.19-1 .41 1.3 3 .89.13 5.29-6.37z"/>
      <path d="M807.24 140.3l.84-7-.75-.53-8 3.78.11.47v.63l7.42-3.52-.75 6.29.15.43 4.55 4.65-12.21 5.75 3.61-4.24a2.09 2.09 0 01-.8-.36 2.42 2.42 0 01-1.28 1.22l-3.85 4.52.63.82 15-7.07.16-.84z"/>
      <path d="M768.05 165.31l-.75-.29-4.3-12.22.16-.5c1.51-1 33.45-18.6 34.81-19.35l.76.32 3.78 13.17-.29.63c-2.87 1.28-33.89 18.07-34.2 18.24m-3.9-12.31l4 11.11c4.13-2.24 29-15.68 33.32-17.78l-3.48-12.12c-4.23 2.34-30.24 16.7-33.81 18.79"/>
      <path d="M767.67 155.46l.21-.69 1.21-.66a1.59 1.59 0 012.33.56 1.66 1.66 0 01-.87 2.33l-.68.36.44.82-.21.69-.69-.21zm2.48.73a.71.71 0 00.37-1 .7.7 0 00-1.06-.22l-.7.37.68 1.25zM772.54 155.26l-1-1.92.2-.69.69.21 1 1.9a1 1 0 001.43.53 1 1 0 00.35-1.45l-1-1.93.21-.69.69.21 1 1.89a1.87 1.87 0 01-.8 2.8 1.84 1.84 0 01-2.74-.86M776.67 152.67a2.38 2.38 0 011-3.26 2.53 2.53 0 011.61-.36l.38.26-.21.68-.32.06a1.61 1.61 0 00-1 .2 1.4 1.4 0 00-.49 1.9 1.38 1.38 0 001.93.63 1.6 1.6 0 00.71-.7l-.31-.58-.61.32-.6-.17.18-.6 1-.55.69.2.53 1v.74a3 3 0 01-1.2 1.18 2.32 2.32 0 01-3.28-.94M780.56 148.47l.21-.69.09-.05.61.01 2.96 1.35-1.13-2.11.2-.68.68.2 1.75 3.26-.21.69-.03.02-.6-.02-3.07-1.39 1.17 2.19-.2.68-.68-.21-1.75-3.25zM786.6 149.21l-.29-4a.63.63 0 01.33-.63h.05l.72.08 3.14 2.46.14.15-.19.66-.6-.07-.62-.5-1.8 1 .08.82-.27.5-.64-.19zm1.92-2.49l-1.28-1 .15 1.65zM789.65 143.61l.21-.69.1-.05.61.01 2.94 1.37-1.11-2.12.2-.68.69.21 1.72 3.26-.21.69-.03.02-.61-.02-3.05-1.41 1.16 2.2-.21.68-.68-.21-1.73-3.26zM795.45 141.06l-.87.46-.63-.2.2-.64 2.65-1.37.63.2-.2.63-.87.45 1.49 2.86-.22.69-.69-.21-1.49-2.87zM703.23 157.51l-6.73 7.45 6.73-7.45zM691 174.74zM717.85 147.93l6.06-6.89a9.29 9.29 0 01-1.63-1.49l-6.34 7.18c.64.38 1.29.78 1.91 1.2M707.32 156.34l-6.74 7.47.34.13-8.34 9.69 2.69 1 7.83-9.43 6.48-7.79-2.26-1.1"/>
      <path d="M692.58 173.63l8.34-9.69-.34-.13-2.6-.97-8.33 9.67 2.93 1.12z"/>
      <path d="M704.74 155l-8.22 9.54 2.94 1.1 8-9.25c-.91-.45-1.79-.93-2.69-1.39M716 146.74l6.33-7.18a9.91 9.91 0 01-1.6-2.62l-7.33 8.31c.87.49 1.74 1 2.6 1.49"/>
      <path d="M715.12 146.26l6.6-7.44a10.24 10.24 0 01-1-1.9l-.11-.18-7.45 8.38 2 1.14M704.23 154.74l-4.29 4.53.33.13-8.57 9.49 2.67 1.09 8-9.23 4.23-4.75c-.8-.4-1.58-.81-2.37-1.22"/>
      <path d="M691.7 169.01l8.57-9.48-.33-.14-2.58-1.03-8.56 9.46 2.9 1.19zM701.63 153.64l-5.77 6.36M690.18 169.82z"/>
      <path d="M701.78 153.48l-5.92 6.52 2.91 1.17 5.72-6.32c-.9-.46-1.82-.92-2.71-1.39M713.18 145.15l7.44-8.35a10.79 10.79 0 01-1.2-3.08l-8.8 9.86c.84.55 1.69 1.07 2.56 1.57M800.27 25.22L810 7.61s-4.53 4.9-13 15.43a12.12 12.12 0 013.27 2.18M799.93 36.85l20.37-21 2.86-2.7s-10 8.28-21.42 17.56a33.49 33.49 0 01-1.81 6.19M797.72 10L796 9.62l-10.22 7.88.15.13.2.06c.47.22.9.48 1.35.74l7.57-4.33-3.29 6.9c1.06.38 2.18.78 3.31 1.23.93-3 1.65-5.35 2.13-7.21.33-1.28.58-2.28.76-3a3.18 3.18 0 00-.24-2M806.52 45.77l15.92-9.15s-5.09 1.45-15.09 5.17l-.92.81c0 1.06.05 2.11.09 3.17M808.3 36.73a1.84 1.84 0 011.31 1.13L825.09 27a590.16 590.16 0 00-18.43 9.39 9.12 9.12 0 011.39.26zM790.93 43.57c-1.1-.42-2.12-1-3.18-1.46-1.37-.65-1.22-2.38-.36-3.33.24-1.83.47-3.66.66-5.5a10 10 0 01-1.68-1l-5.09 10.63.44.31.27.24a1.79 1.79 0 011.4.69l.07.09.26.06.3.1.45.29a13.29 13.29 0 011.43 1l.2.15a12.4 12.4 0 011.22 1.16l.22.25.16.21a13.37 13.37 0 01.85 1.16l.33.51.21.32c.34.56.62 1.13.9 1.69l.31.65c.41.89.78 1.78 1.11 2.7l10.27-5.91c-3.49-1.85-7.37-3-10.75-5M778.3 101.6a6 6 0 01.12.85v.47l8 5.75.87.25a2 2 0 011.08.84l.11-.85zM706.09 96.18a2.12 2.12 0 01-.07-1.05h-13l3.24-6.61-3.19-6.52 9.38.07-1.35-.59a2.06 2.06 0 01-.7-.48l-9-.07 3.75 7.57-3.75 7.66zM708.43 87l-3 .91-.23.86.71.79c.26-.25-.25-.92.1-1l.53.16 2.36-.72z"/>
      <path d="M785.23 121.21l-7.83 11.32h-6l-.52.46c0 .09-1.33 9.12-14.29 11.58a22.9 22.9 0 00-8.09 3 14.44 14.44 0 00-3.34 2.89 14.39 14.39 0 00-3.33-2.89 22.9 22.9 0 00-8.09-3c-13-2.46-14.28-11.49-14.29-11.58l-.52-.46h-6l-9.58-13.86c3.81-1.54 6.79-5.88 8.21-11.39h.05a27.58 27.58 0 00.78-4.57 2.25 2.25 0 01-1-.31v.43c-.07.79-.18 1.56-.32 2.31l-.08.46c-1.21 6.18-4.43 11-8.56 12.33l-.27.8 1.77 2.57 8.35 12.08.44.23h5.87c.42 1.79 2.62 8.35 12 11.24a27.29 27.29 0 003.12.79 23.16 23.16 0 016.69 2.23 13.41 13.41 0 014.5 3.77h.85a13.41 13.41 0 014.5-3.77 23.16 23.16 0 016.69-2.23 27.29 27.29 0 003.12-.79c9.36-2.89 11.56-9.45 12-11.24h5.87l.44-.23 8.11-11.74a2.25 2.25 0 01-1-.41M791 52.67a20.11 20.11 0 00-9-10l-.25-.06H770.7l-.39.87a5.34 5.34 0 01-3.31 8.79l-.72.08a5.37 5.37 0 01-5.34-5.35 5.3 5.3 0 01.4-2l-.48-.72h-9.57l-.49.31-1 2.36-.35.79h-8.67l-.35-.79-1-2.36-.49-.31h-9.57l-.48.72a5.3 5.3 0 01.4 2 5.37 5.37 0 01-5.36 5.36l-.72-.08a5.34 5.34 0 01-3.29-8.83l-.39-.87h-11.17l-.25.06a20.11 20.11 0 00-9 10 33.29 33.29 0 00-3 14.31 33.21 33.21 0 001.89 9.77c.59 1.73 1.27 3.4 2 5l.45.31a7.29 7.29 0 013.08.9l.14.06a9.53 9.53 0 01.89.57l.11.07a12.92 12.92 0 012.64 2.72c.25.34.48.7.71 1.07a19.89 19.89 0 011 2l.39-.08a2 2 0 01.85.18 17.2 17.2 0 00-3.83-5.82 11 11 0 00-1-.83 8.54 8.54 0 00-1-.64l-.11-.08a7.53 7.53 0 00-1-.46l-.19-.1a8.41 8.41 0 00-1-.31l-.21-.07a8.05 8.05 0 00-1.21-.21c-3.39-7.64-5.77-16.32-.74-27.94a19.09 19.09 0 018.39-9.47h9.93a6.38 6.38 0 004.71 9.72 6.11 6.11 0 00.86.09 6.42 6.42 0 006.42-6.4 6.13 6.13 0 00-.23-1.71h8.49l1.38 3.14.49.32h9.36l.48-.32 1.38-3.14h8.49a6.13 6.13 0 00-.23 1.71 6.42 6.42 0 006.41 6.41 6.27 6.27 0 00.86-.09 6.38 6.38 0 004.59-9.69h9.93a19.09 19.09 0 018.39 9.47c5 11.62 2.65 20.3-.74 27.94a8.41 8.41 0 00-1.22.21l-.2.07a7.83 7.83 0 00-1 .31l-.19.1a7.53 7.53 0 00-1 .46l-.11.08a8.54 8.54 0 00-1 .64h-.05a11 11 0 00-1 .83c-3.54 3.35-5.88 9.41-5.88 16.36a28.42 28.42 0 00.79 6.57 2.17 2.17 0 01.91.28l.27.12c-.13-.51-.27-1-.37-1.53l-.08-.46c-.14-.75-.25-1.52-.32-2.31a26.07 26.07 0 01-.14-2.67 24.63 24.63 0 013.25-12.65c.23-.37.46-.73.71-1.07a12.48 12.48 0 012.65-2.72l.1-.07a9.53 9.53 0 01.89-.57l.14-.06a7.29 7.29 0 013.08-.9l.45-.31c.73-1.63 1.41-3.3 2-5A33.21 33.21 0 00794 67a33.15 33.15 0 00-3-14.31M701.44 149.55zM796 150.35l-.32.33a6 6 0 000 7.77l1.82-6.25a2 2 0 01-1.53-1.85"/>
      <path d="M788.17 122.7l-82.73-21-.4-.51V88.43l.66-.52 82.73 21 .4.51v12.77zm-82.08-21.91l81.68 20.73v-11.7L706.09 89.1z"/>
      <path d="M745.09 59.65c-13.42 0-24.46 14-26.06 32a246.72 246.72 0 0031.14 8.19 130.07 130.07 0 0118.24 4.63l2.16.39a49.41 49.41 0 00.79-8.71c0-20.18-11.76-36.54-26.27-36.54M736.38 92l-3-1.55-2.89 1.55.56-3.28-2.38-2.32 3.29-.48 1.47-3 1.47 3 3.29.48-2.38 2.32zm6.32-21.31l3.29-.48 1.48-3 1.47 3 3.29.48-2.38 2.31.56 3.28-2.94-1.55-3 1.55.57-3.28zm9.3 25.06l-1.91-1-1.91 1 .36-2.13-1.54-1.51 2.13-.31 1-1.93 1 1.93 2.14.31-1.54 1.51zm10.55-8l-2.94-1.54-3 1.54.56-3.28-2.38-2.32 3.29-.48 1.48-3 1.47 3 3.29.48-2.32 2.36zM750.16 112.23c-10.32-2.33-20.63-4.87-30.66-7.82 2.68 16.22 13.11 28.31 25.59 28.31 9 0 17-6.36 21.71-16-5.71-.87-11.13-2.72-16.64-4.46m-2.13 12l-2.94-1.55-3 1.55.56-3.28-2.38-2.32 3.29-.48 1.48-3 1.47 3 3.29.48-2.33 2.34zM704 42.34l-12.43-2-.18-1 10.92-6.24.78.36 1.51 8.19zm-10.79-2.75l10.22 1.59-1.24-6.72z"/>
      <path d="M683.12 51.78l-.73-.58 1.41-7.65-5.38-4.91.17-.88 11.18-4.21.69.35 1.54 5.51 12.1 1.89.13 1zm-3.36-13.34l5 4.53.17.48-1.28 7 18.6-8.34-10.71-1.71-.43-.38-1.5-5.28z"/>
      <path d="M798.69 40.33c-.35-.2-34.42-19.84-45.2-24.68-.94-.42-1.87-.79-2.75-1.09a17 17 0 00-10.92 0 34 34 0 00-2.75 1.09c-10.77 4.84-44.85 24.48-45.19 24.68l-.77-.31-3.76-13.3.25-.61c.35-.19 35-19 42.4-22.44a33.66 33.66 0 0130.57 0C768 7.1 802.62 25.92 803 26.11l.26.61-3.8 13.28zm-53.41-27.72a17.9 17.9 0 015.8 1c.91.31 1.87.69 2.84 1.13 10 4.5 40.12 21.76 44.7 24.39l3.47-12.24c-3.76-2.05-35-19-42-22.21a32.57 32.57 0 00-29.69 0c-7 3.22-38.2 20.16-42 22.21l3.47 12.24c4.58-2.63 34.66-19.89 44.7-24.39 1-.44 1.93-.82 2.85-1.13a17.88 17.88 0 015.79-1"/>
      <path d="M786.6 42.34l-.6-.61 1.5-8.18.78-.37 10.93 6.24-.18 1zm1.81-7.88l-1.24 6.72 10.21-1.59z"/>
      <path d="M807.45 51.78L786.3 42.3l.14-1 12.09-1.89 1.57-5.51.7-.35 11.2 4.21.17.89-5.38 4.9 1.41 7.65zm-19.1-9.71L807 50.41l-1.28-7 .17-.48 4.95-4.52-9.84-3.67-1.54 5.26-.43.38zM698 28a2.53 2.53 0 011.08-3.5 2.57 2.57 0 011.71-.34l.39.28-.22.73-.35.06a1.64 1.64 0 00-1.06.16 1.49 1.49 0 00-.55 2.06 1.49 1.49 0 002 .7 1.6 1.6 0 00.77-.86l.23-.26.69.21v.43A2.63 2.63 0 01698 28M703.43 27.14l-.31-4.28a.67.67 0 01.36-.69l.77.09 3.38 2.65.15.16-.21.71-.64-.08-.67-.54-1.93 1 .08.88-.29.54-.69-.21zm2.07-2.67l-1.38-1.13.16 1.78zM706.73 21.12a.56.56 0 01.23-.75l.11-.05h.57l2.19 1.29.16-2.54.31-.48.1-.06a.56.56 0 01.75.23l1.85 3.53a.55.55 0 01-.23.74l-.77-.23-1.17-2.2-.15 1.76-.28.46h-.53l-1.52-.85 1.16 2.19a.54.54 0 01-.23.73.54.54 0 01-.73-.23zM712.24 18.25a.55.55 0 01.23-.74l1.32-.69a1.71 1.71 0 012.49.64 1.79 1.79 0 01-1 2.49l-.73.39.45.87a.53.53 0 01-.23.74.55.55 0 01-.74-.23zm2.65.83a.77.77 0 00.42-1.07c-.22-.44-.65-.51-1.13-.26l-.75.39.7 1.35zM717.16 17.88a2.59 2.59 0 011.17-3.52 2.55 2.55 0 013.53 1.06 2.59 2.59 0 01-1.17 3.52 2.55 2.55 0 01-3.53-1.06m3.68-1.88a1.52 1.52 0 00-2.07-.69 1.49 1.49 0 00-.61 2.06 1.51 1.51 0 002.06.69 1.48 1.48 0 00.61-2.07M723.54 16.78l-.38-.28.23-.68.33-.06a2.14 2.14 0 001.34-.17c.4-.21.56-.49.43-.75-.12-.25-.34-.3-1.18-.11-1 .22-1.72.27-2.17-.61A1.56 1.56 0 01723 12a2.94 2.94 0 011.61-.32l.41.27-.23.69-.28.06a2.06 2.06 0 00-1.08.17c-.38.19-.49.46-.38.68.15.3.39.29 1.26.1s1.69-.16 2.09.62a1.59 1.59 0 01-.93 2.21 3.24 3.24 0 01-1.94.32M727.85 10.19a.54.54 0 01.25-.73l1.26-.62a2.48 2.48 0 013.47 1.07 2.51 2.51 0 01-1.29 3.41l-1.25.61a.54.54 0 01-.74-.25zm3.27 2.25a1.43 1.43 0 00.69-2 1.45 1.45 0 00-2-.69l-.76.38 1.32 2.7zM733.59 9.49a2.59 2.59 0 011.51-3.39 2.56 2.56 0 013.41 1.4 2.58 2.58 0 01-1.51 3.39 2.55 2.55 0 01-3.41-1.4M737.45 8a1.52 1.52 0 00-2-.89 1.49 1.49 0 00-.81 2 1.51 1.51 0 102.8-1.1M739.91 9.21l-.28-.37a.5.5 0 01.42-.58h.33a2 2 0 001.33.22c.44-.08.68-.3.63-.59-.05-.27-.24-.38-1.1-.45-1-.08-1.72-.24-1.89-1.22a1.56 1.56 0 011.46-1.78 2.81 2.81 0 011.64.16l.31.38a.51.51 0 01-.42.59h-.28a2.06 2.06 0 00-1.06-.16c-.42.07-.6.31-.56.54V6c.06.32.29.39 1.18.46s1.66.34 1.81 1.2c.17 1-.48 1.65-1.54 1.84a3.23 3.23 0 01-2-.27M746.53 6.55a2.57 2.57 0 013-2.09 2.81 2.81 0 011.6.77l.15.48a.54.54 0 01-.63.44l-.29-.15a1.76 1.76 0 00-1-.53 1.5 1.5 0 00-1.67 1.29 1.5 1.5 0 001.22 1.82 1.74 1.74 0 001.09-.15l.12-.7-.73-.13-.39-.54.55-.39 1.24.21a.56.56 0 01.45.64L751 8.71a.74.74 0 01-.5.62 3.28 3.28 0 01-1.81.2 2.5 2.5 0 01-2.14-3M752.31 7.69a2.65 2.65 0 014.83 2.17 2.65 2.65 0 01-4.83-2.17m3.78 1.71a1.52 1.52 0 00-.73-2.05 1.49 1.49 0 00-2 .8 1.52 1.52 0 00.73 2 1.48 1.48 0 002-.8M758.72 11.37l-.44-2.68.06-.42a.53.53 0 01.73-.22l.33.55.29 2.11 1.9-1 .62-.06a.51.51 0 01.23.72l-.3.28-2.43 1.21-.65 1.28a.55.55 0 01-.74.24.54.54 0 01-.24-.73zM763.93 11.73l-.94-.48-.21-.69.68-.21 2.85 1.48.21.68-.68.22-.94-.49-1.6 3.08a.55.55 0 11-1-.51zM764.75 15.84l3.37-2.66a.68.68 0 01.77-.09h.06a.68.68 0 01.36.68l-.3 4.29v.22l-.7.23L768 18l.07-.86-1.95-1-.69.56-.6.07-.22-.69zm3.38.22l.15-1.78-1.38 1.13zM770.31 16.75a2.54 2.54 0 013.51-1.06 2.62 2.62 0 011.24 1.23v.48a.53.53 0 01-.73.22l-.24-.25a1.62 1.62 0 00-.74-.79 1.47 1.47 0 00-2 .7 1.48 1.48 0 00.55 2.06 1.6 1.6 0 001.14.17h.35l.21.69-.35.26a2.63 2.63 0 01-2.92-3.75M774.09 20.77l3.38-2.65.77-.08h.06a.67.67 0 01.35.68l-.31 4.28-.06.23-.7.22-.29-.58.07-.85-1.93-1-.7.56-.61.07-.2-.7zm3.37.23l.16-1.78-1.38 1.13zM778.84 23.56l.01-.02.42-.36 3.71-1.43-1.96-1.05-.2-.65.66-.2 2.81 1.51.2.65-.01.02-.42.36-3.71 1.43 2.03 1.09.2.66-.65.19-2.89-1.55-.2-.65zM783.5 26l1.84-3.43a.55.55 0 01.74-.22l2.44 1.31.2.67-.66.19-2-1.05-.48.89 1.68.9.2.66-.67.2-1.67-.9-.49.92 2 1.07.2.66-.66.2-2.46-1.33a.55.55 0 01-.23-.74M787.62 28.22v-.46l.69-.21.23.24a2.1 2.1 0 00.91 1c.39.21.72.19.85-.07.14-.25 0-.45-.58-1s-1.2-1.25-.73-2.13a1.55 1.55 0 012.25-.49 2.83 2.83 0 011.18 1.14v.5l-.69.2-.21-.2a2.18 2.18 0 00-.76-.8c-.37-.19-.66-.13-.78.08-.16.29 0 .49.63 1.09s1.1 1.3.68 2.07a1.59 1.59 0 01-2.35.49 3.2 3.2 0 01-1.36-1.41M739.49 154.26l-7.59.21a10 10 0 00-.32 1.19l.18-.13 7-.19-.51 1.35 1 .29.75-2zM727 152.12l-4-6-1 .15-.82 3.19.91.67.64-2.44 3.27 4.81-.52 1.79a6.74 6.74 0 01-.05 2.28l.53-.12 1.11-3.89z"/>
      <path d="M722.79 145.9l-.68.76 3.81 5.77v.06a2.81 2.81 0 01.38 1.4l.73-1.2v-.57l-2.92-4.41 13.31 6.61-5.77.16-.49.39-.76 2.82.2-.67a2 2 0 011.44-1.39v-.11l7.49-.2.22-1z"/>
      <path d="M722.12 165.08c-.31-.17-31.33-17-34.2-18.23l-.29-.63 3.78-13.17.76-.32c1.36.75 33.3 18.38 34.81 19.35l.21.62-4.32 12.1zm-33.36-19c4.33 2.11 29.19 15.55 33.32 17.79l4-11.12c-3.57-2.08-29.58-16.44-33.81-18.78zM752 157.07h.1l-.65-1.72 7 .19.22.13-.14.13a2 2 0 01.77.6 12.22 12.22 0 01-.63-1.85l-8-.27-.5.71.88 2.33a2.2 2.2 0 01.93-.24"/>
      <path d="M745.1 172.26a48.72 48.72 0 01-5.17-.4 51.1 51.1 0 01-12.63-4l-.28-.65 4.1-12.42.73-.31a31.85 31.85 0 0026.47 0l.73.31 4.1 12.42-.28.65a50.58 50.58 0 01-12.62 3.94 46.62 46.62 0 01-5.15.41m-16.93-5.12a49.15 49.15 0 0011.92 3.68c1.63.21 3.32.34 5 .39a40 40 0 0016.91-4.02l-3.78-11.42a32.9 32.9 0 01-26.29 0zM731.45 37.08h27.32s-3.49-20.6-16.77-18.2c-8.12 1.47-6 12.14.86 6.55 0 0-11.29-.42-11.41 11.65"/>
      <path d="M745.33 18.76a11.47 11.47 0 00-3.33.12c-5.35 1-6.25 5.93-4.28 7.61-3 1.29-6.21 4.18-6.27 10.59h13.88zM716.57 95.6a.56.56 0 01.69-.41.57.57 0 01.41.7l-1 4a.57.57 0 01-1.1-.28zM718.92 96.25a.57.57 0 01.69-.4l1.5.38a1.78 1.78 0 011.48 2.23 1.85 1.85 0 01-2.48 1.24l-.84-.21-.25 1a.57.57 0 01-1.11-.28zm1.47 2.49a.8.8 0 001.07-.54c.13-.49-.15-.85-.7-1l-.85-.22-.39 1.54zM722.59 101.39l-.1-.47a.52.52 0 01.65-.37l.29.18a2.27 2.27 0 001.16.78c.45.11.77 0 .85-.29.08-.28-.06-.47-.84-.9-1-.52-1.52-1-1.27-2a1.61 1.61 0 012.15-1.06 3 3 0 011.47.85l.14.5a.53.53 0 01-.65.37l-.26-.15a2.08 2.08 0 00-1-.6c-.42-.11-.69 0-.75.27-.08.33.1.49.91.94s1.43 1 1.21 1.91a1.65 1.65 0 01-2.24 1.08 3.34 3.34 0 01-1.73-1.09M726.94 102.31l3.25-3.31a.75.75 0 01.76-.22l3.4.87a.51.51 0 01.36.62.49.49 0 01-.62.36l-2.05-.52-.26 1 1.73.45a.51.51 0 01.37.62.51.51 0 01-.62.36l-1.74-.45-.27 1.06 2.09.54a.51.51 0 11-.25 1l-2.63-.68a.57.57 0 01-.41-.7l.15-.57-1.78-.45-.71.74-.56.17a.46.46 0 01-.37-.56zm3.51-.57l.5-2h-.12l-1.61 1.68zM737.84 101.09a.56.56 0 01.69-.41h.12l.43.42.78 2.51 1.89-1.83.57-.16h.12a.57.57 0 01.41.7l-1 4a.57.57 0 11-1.1-.28l.64-2.5-1.39 1.28-.53.16-.38-.4-.58-1.71-.64 2.49a.56.56 0 01-1.08-.28zM742.8 106.4l2.76-3.5a.7.7 0 01.76-.27h.06a.7.7 0 01.53.61l.73 4.39v.24a.55.55 0 01-.66.4l-.43-.52-.13-.88-2.21-.56-.56.73-.6.21a.52.52 0 01-.38-.64zm3.46-.6L746 104l-1.12 1.48zM750 104.75l-1.06-.27a.53.53 0 01-.38-.64.52.52 0 01.64-.37l3.23.83a.52.52 0 01.37.64.53.53 0 01-.64.37l-1.06-.27-.89 3.49a.57.57 0 01-.7.41.58.58 0 01-.41-.7zM753.64 105.18a.59.59 0 01.7-.41l1.74.46a2 2 0 011.33.88 1.56 1.56 0 01.13 1.25 1.58 1.58 0 01-1.4 1.27l.53 1.13.07.46a.52.52 0 01-.65.38l-.47-.43-.73-1.64-.88-.22-.28 1.09a.57.57 0 01-1.1-.28zm1.74 2.46c.54.14.92-.07 1-.49.13-.48-.14-.81-.68-.94l-1.1-.29-.37 1.44zM758.11 108.44a2.75 2.75 0 015.33 1.36 2.76 2.76 0 01-5.34-1.35m4.18 1.07a1.57 1.57 0 00-1.11-2 1.55 1.55 0 00-1.91 1.17 1.56 1.56 0 103 .79M764.94 108.06a.56.56 0 01.69-.41h.12l.49.47 1.4 3.34.67-2.59a.56.56 0 01.69-.4.57.57 0 01.4.68l-1 4a.56.56 0 01-.69.41.68.68 0 01-.49-.47l-1.46-3.46-.69 2.69a.55.55 0 01-.68.4.56.56 0 01-.41-.68zM769.36 113.22l3.24-3.33a.75.75 0 01.76-.22l3.4.87a.51.51 0 01.37.62.5.5 0 01-.62.36l-2.06-.52-.26 1 1.73.45a.51.51 0 01.37.62.51.51 0 01-.62.36l-1.73-.45-.28 1.06 2.1.53a.52.52 0 01.36.63.49.49 0 01-.62.35l-2.63-.67a.57.57 0 01-.41-.7l.15-.57-1.78-.46-.71.75-.56.17a.47.47 0 01-.37-.57zm3.5-.57l.5-2h-.12l-1.61 1.68zM694.71 139.8a.54.54 0 01.74-.21.55.55 0 01.22.75l-.71 1.28 1.77 1 .71-1.29a.55.55 0 111 .54l-1.93 3.48a.54.54 0 01-.75.21.56.56 0 01-.22-.75l.74-1.31-1.78-1-.73 1.31a.53.53 0 01-.74.21.56.56 0 01-.22-.75zM699.47 142.45a.55.55 0 01.75-.21.54.54 0 01.21.75l-1.91 3.48a.55.55 0 01-.75.21.54.54 0 01-.21-.74zM700.35 145.22a2.54 2.54 0 013.53-1 2.6 2.6 0 011.22 1.25v.48l-.73.21-.24-.25a1.67 1.67 0 00-.72-.81 1.49 1.49 0 00-2 .67 1.5 1.5 0 00.52 2.08 1.6 1.6 0 001.07.15l.34.06.21.69-.35.25a2.63 2.63 0 01-2.87-3.79M708 147.15a.55.55 0 01.75-.22l1.31.71a1.71 1.71 0 01.86 2.43 1.78 1.78 0 01-2.61.58l-.74-.4-.47.87a.55.55 0 11-1-.52zm.8 2.67a.77.77 0 001.12-.25c.23-.44.06-.83-.42-1.1l-.75-.4-.75 1.33zM712.14 149.42a.53.53 0 01.74-.22l1.53.82a2 2 0 011 1.14 1.58 1.58 0 01-.17 1.2 1.53 1.53 0 01-1.6.87l.24 1.17v.46a.52.52 0 01-.7.2l-.34-.51-.3-1.7-.77-.42-.51 1a.55.55 0 11-1-.52zm1.05 2.7a.73.73 0 001.08-.22c.23-.41.05-.78-.42-1l-1-.51-.68 1.26zM715.53 153.47a2.65 2.65 0 014.69 2.48 2.59 2.59 0 01-3.56 1 2.55 2.55 0 01-1.12-3.51m3.66 1.95a1.51 1.51 0 00-.6-2.09 1.49 1.49 0 00-2.05.66 1.5 1.5 0 00.59 2.09 1.48 1.48 0 002.05-.67M722.03 146.23l.74-.36.22.87-.96-.51zM739.75 154.32l.25.66h-.56l.31-.66zM750.17 154.98l.26-.66 1-.06-1.26.72zM767.38 145.9l.75.33-.52.51-.23-.84z"/>
      <path d="M694.31 149.4l-1 2.34-3.84-4.61.34.06-.1-.12-.48-.23-.47-.56v-.55c-.19-.5-.09-.7.19-1.3a16 16 0 001.09-3.79l-2.36 5.58.1.49 3.78 4.55-11.82-5.54 4.56-4.65.15-.43-.17-6 6.51 3.08a7.41 7.41 0 01.41-1l-7.97-3.72-.74.54.83 7-4.9 5 .15.84 14.63 6.86.71-.27 1.35-3.09-1-.46M705.04 88.42l.37-.5.58.17-.95.33zM883.33 81.59q12 0 19.13 12L917 83.71a36.49 36.49 0 00-13.79-14.52A38.29 38.29 0 00883.44 64q-16.68 0-28.19 11a35.85 35.85 0 00-11.51 27.08 35.94 35.94 0 0011.45 27.13q11.46 10.91 28.14 10.9a38.51 38.51 0 0019.91-5.17A36.53 36.53 0 00917 120.41l-14.57-9.9q-7.12 12-19.13 12-8.9 0-14.46-5.56t-5.56-14.79q0-9.24 5.62-14.91a19.38 19.38 0 0114.4-5.67M953.06 64l-33.37 74.74h20.58l2.67-6.12h26.36l2.66 6.12h20.58L959.18 64zm-3.34 53.27l6.45-17 6.34 17zM1037.47 102.17l-31.25-38.15h-6.12v74.74h19.13v-30.7l15.13 17.69h6.11l15.24-17.8v30.81h19.13V64.02h-6.12l-31.25 38.15zM1138.67 70.92q-8-6.9-20.35-6.9h-28.81v74.74h19.13v-24.14h9.68q12.23 0 20.29-7.06c5.38-4.7 8.07-9.47 8.07-17s-2.67-15.09-8-19.68m-13.85 24.63a8.6 8.6 0 01-6.39 2.39h-9.79V80.7h9.79a8.73 8.73 0 016.39 2.34 8.29 8.29 0 012.39 6.23 8.47 8.47 0 01-2.39 6.28M1220.85 75q-11.56-11-28.13-11t-28 11a36 36 0 00-11.45 27.08 36 36 0 0011.45 27.08q11.46 11 28 11t28.13-11a35.83 35.83 0 0011.57-27.08A35.81 35.81 0 001220.85 75m-13.68 41.92a19.51 19.51 0 01-14.34 5.62q-8.89 0-14.46-5.62t-5.56-14.84q0-9.12 5.56-14.8t14.46-5.67a19.44 19.44 0 0114.34 5.67q5.68 5.68 5.68 14.8t-5.68 14.84M1290.08 104.22q-4.62-5.16-14.18-9.17l-8.45-3.56a17.39 17.39 0 01-5-2.72 4.27 4.27 0 01-1.39-3.29q0-4.67 6.56-4.67a11.56 11.56 0 016.67 1.89 21.33 21.33 0 015.45 5.9l12.79-9.79Q1285.14 64 1267.45 64q-11.34 0-18.52 6a19.44 19.44 0 00-7.17 15.74q0 14 18.57 22.13l7.56 3.34a29.77 29.77 0 015.9 3.11 4.37 4.37 0 011.56 3.67q0 5.34-7.57 5.34-9.35 0-16.35-9.46l-12.9 9.79a29.84 29.84 0 0011.68 12 34.35 34.35 0 0017.57 4.45q11.68 0 19.3-6.17t7.62-16.74a18.74 18.74 0 00-4.62-13M856.62 34.14a4.41 4.41 0 011.38 3.41 5.07 5.07 0 01-1.72 3.92 6.67 6.67 0 01-4.64 1.53h-5l-1.45 8.27h-1.45L847 32.86h5.66a5.65 5.65 0 014 1.28m-1.37 6.42a3.92 3.92 0 001.22-3 3.26 3.26 0 00-1-2.53 4.25 4.25 0 00-3-.91h-4.32l-1.32 7.6h4.86a4.84 4.84 0 003.53-1.18M875.23 41.16a6.24 6.24 0 01-3.88 1.84l4.88 8.32h-1.61L869.76 43h-4.47l-1.45 8.27h-1.46l3.24-18.43h5.67a5.67 5.67 0 014 1.28 4.42 4.42 0 011.38 3.38 5.07 5.07 0 01-1.42 3.64m-9.72.58h4.86a4.86 4.86 0 003.53-1.18 4 4 0 001.22-3 3.26 3.26 0 00-1-2.53 4.27 4.27 0 00-3-.91h-4.33zM896.87 34.14h-10.11l-1.17 6.53h7.87l-.22 1.32h-7.85l-1.4 8.01h10.42l-.23 1.29h-11.86l3.24-18.43h11.53l-.22 1.28zM915.12 34.14h-9.83l-1.25 7.15h8.18L912 42.6h-8.18l-1.51 8.69h-1.46l3.24-18.43h11.26l-.23 1.28zM932.65 34.14h-10.1l-1.18 6.53h7.88l-.23 1.32h-7.84l-1.4 8.01h10.42l-.23 1.29h-11.86l3.24-18.43h11.53l-.23 1.28zM938.1 51.29h-1.46l3.24-18.43h1.45l-3.23 18.43zM962.25 34.14h-6.73l-3.05 17.15h-1.45l3.04-17.15h-6.75l.22-1.28h14.94l-.22 1.28zM980.39 45.06a7.69 7.69 0 01-2.59 4.79 7.41 7.41 0 01-4.86 1.72 6.7 6.7 0 01-4.74-1.73 5.91 5.91 0 01-1.85-4.5 11.12 11.12 0 01.14-1.68l1.87-10.8h1.45l-1.9 10.89a9.29 9.29 0 00-.11 1.45 4.73 4.73 0 001.49 3.66 5.29 5.29 0 003.7 1.37 5.89 5.89 0 003.9-1.4A6.19 6.19 0 00979 45l2.09-12.09h1.45zM1000.1 41.16a6.24 6.24 0 01-3.88 1.84l4.89 8.32h-1.62L994.63 43h-4.47l-1.45 8.27h-1.45l3.24-18.43h5.66a5.65 5.65 0 014 1.28 4.42 4.42 0 011.39 3.38 5.07 5.07 0 01-1.43 3.64m-9.72.58h4.86a4.83 4.83 0 003.53-1.18 4 4 0 001.22-3 3.26 3.26 0 00-1-2.53 4.25 4.25 0 00-3-.91h-4.31zM1019.5 46.88h-9.6l-2.6 4.41h-1.65l11.2-18.71h.56l4.59 18.71h-1.45zm-2.79-11.62l-6.06 10.33h8.52zM1052.15 35.27a8.1 8.1 0 012.47 6 10.81 10.81 0 01-.33 2.65 9.65 9.65 0 01-1.15 2.65 9.3 9.3 0 01-2 2.36 9.56 9.56 0 01-3.17 1.67 14.2 14.2 0 01-4.38.64h-5.84l3.25-18.38h4.35a9.33 9.33 0 016.83 2.41M1048 49.22a7.36 7.36 0 003-2.06 9.45 9.45 0 001.6-2.74 8.68 8.68 0 00.53-3 7.12 7.12 0 00-2.08-5.22 7.84 7.84 0 00-5.83-2.1h-3l-2.81 15.9h4.24a11.41 11.41 0 004.38-.78M1074.61 34.14h-10.11l-1.17 6.53h7.87l-.22 1.32h-7.85l-1.39 8.01h10.41l-.22 1.29h-11.86l3.23-18.43h11.54l-.23 1.28zM777.28 140.41a1.65 1.65 0 01.46-1.15 1.69 1.69 0 10-1.24 2.85 1.67 1.67 0 001.24-.55 1.63 1.63 0 01-.46-1.15M777.41 137.71a1.73 1.73 0 011.15.56 1.76 1.76 0 00.65-1.23 1.74 1.74 0 00-3.48-.25 1.77 1.77 0 00.47 1.31 1.73 1.73 0 011.21-.39M769.09 142.31a6.47 6.47 0 001.71 2.36 4.78 4.78 0 006.21.08zM769.09 142.31a6.65 6.65 0 012.74-1 4.78 4.78 0 015.18 3.43zM784.73 131.63A8.32 8.32 0 01786 135a6 6 0 01-4.19 6.54z"/>
      <path d="M784.73 131.63a8.39 8.39 0 00-2.93 2.19 6 6 0 000 7.76zM711.84 43.26l1.86.1c-2.81-4.43-5.4-8.56-7.74-12.29l-1.29.74c2.17 3.48 4.57 7.33 7.17 11.45zM781.19 143c-2.38-3.12-4.82-6.4-7.32-9.81l-1.89.35q4 5.56 7.71 10.38zM699.33 20.42c-3.84-6.19-6.13-10-6.27-10.18l-.6 1.74c.06.12 2.09 3.46 5.56 9.08zM789.29 153.32l-1.59.82q15.45 19 22.17 20.71l1.53-.59c-4.61-1.2-12.52-9.16-22.11-20.94zM182 17.12v94H72v88H0v-182h182z"/>
      <path d="M114 153.12v13h68v33H85v-75h97v29h-68zM205.5 51.23v-35.7h19.71v7.14h-11.33V29h10.43v7.14h-10.43v15.09zM229 15.53h8.37v26.94c0 1.72.53 3.19 2.91 3.19 2.19 0 2.85-1.9 2.85-3.43v-26.7h8.38v25.85c0 6-2.71 10.71-11.28 10.71-7.09 0-11.23-3.38-11.23-10.71zM262.78 31.24l-.1.09.76 19.9h-7.95v-35.7h8.62l6.48 19.94h.14l-.81-19.94h7.95v35.7h-8.57zM282.11 51.23v-35.7h9.09c3.05 0 6.71.09 9.43 1.66 3.24 1.91 3.76 5.38 3.76 8.81v15.85c-.05 3.57-1.14 6.19-3.57 7.72-2.19 1.42-4.86 1.66-7.43 1.66zm8.38-6.43c5.61.39 5.66-1.9 5.52-6.66V26.48c-.05-4.19-1.43-4.43-5.52-4.53zM306.82 51.23l7.81-35.7h10.09l7.76 35.7H324l-1.19-6.95h-6.56l-1 6.95zM319.67 22h-.09l-2.43 16H322zM344.29 52c-6.91-.33-9.57-4.38-9.57-11.28V26.05c0-7.76 3.57-11.38 11.23-11.38 7.14 0 11.43 3 11.43 10.33v3H349v-2.29c0-3-1.09-4.61-2.67-4.61-2.61-.05-3.23 1.38-3.23 3.71l-.05 17.66c0 2 .81 3.19 3 3.19 2.86 0 3.09-2.95 3.09-5.14v-3.24h8.38v4.38c0 5.71-3 9.81-10.47 10.33l-1.43 2.19.1.1a4.74 4.74 0 011.76-.24c2.19.1 4.47 1.19 4.47 3.67 0 3-3.33 4.57-6 4.57a17.7 17.7 0 01-6.28-1.34l1-2.19a15.48 15.48 0 004.09 1c1.19 0 2.53-.57 2.48-1.76a1.87 1.87 0 00-1.91-1.66 3.78 3.78 0 00-2 .47l-1.23-1.14zM359.76 51.23l7.81-35.7h10.09l7.76 35.7H377l-1.19-6.95h-6.57l-1 6.95zM372 11.76a9.64 9.64 0 00-2.86-.85 2.28 2.28 0 00-2.09 2h-3.77c.62-3.18 2-6.71 5.86-6.71a10.93 10.93 0 013.95.91 9.06 9.06 0 003 .95 2.1 2.1 0 002-1.76h3.81c-.38 3.38-2.19 6.33-5.95 6.33a10.15 10.15 0 01-3.95-.87zm.62 10.24h-.1l-2.43 16H375zM410.42 39.85c0 8-2.81 12.24-11.29 12.24s-11.42-4.19-11.42-12.24V25.33c0-6.85 4.09-10.66 11.42-10.66s11.29 3.81 11.29 10.66zM402 25.9c0-2.19-.19-4.8-3-4.8s-3 2.61-3 4.8v14.67c0 2 .33 5.09 3 5.09s2.91-3 2.91-5.09zM219.31 76.33V74c0-3.05-1.1-4.62-2.67-4.62-2.62 0-3.23 1.38-3.23 3.72v17.66c0 2 .81 3.19 3 3.19 2.85 0 3.09-2.95 3.09-5.14v-3.2h8.38V90c0 6.14-3.52 10.43-12.09 10.43C208 100.42 205 96.32 205 89V74.37c0-7.75 3.6-11.37 11.26-11.37 7.14 0 11.43 3 11.43 10.33v3zM231.64 63.85H240V90.8c0 1.71.52 3.19 2.9 3.19 2.19 0 2.86-1.91 2.86-3.43V63.85h8.38V89.7c0 6-2.71 10.72-11.28 10.72-7.1 0-11.24-3.38-11.24-10.72zM257.88 99.56V63.85h8.37v28.57h10.24v7.14zM274.78 63.85h21.71V71h-6.76v28.56h-8.38V71h-6.57zM299.53 63.85h8.38V90.8c0 1.71.53 3.19 2.91 3.19 2.19 0 2.85-1.91 2.85-3.43V63.85h8.38V89.7c0 6-2.71 10.72-11.28 10.72-7.09 0-11.24-3.38-11.24-10.72zM334.38 99.56H326V63.85h12.23c6.86 0 10.28 2.77 10.28 9.86 0 3.81-.9 6.52-4.42 8.14V82a4.91 4.91 0 014.14 4.61c.24 2.86.28 9 .76 11.29a3.11 3.11 0 00.81 1.23v.48h-9.14a7.56 7.56 0 01-.48-2c-.14-3.14.05-6.09-.19-8.28s-.9-3.62-2.85-3.76h-2.77zm0-20.52h2.86c2.43 0 3-2.24 3-4.43 0-4.23-1.76-4.42-5.86-4.33zM350.91 99.56l7.8-35.71h10.1l7.76 35.71h-8.48l-1.19-7h-6.57l-1 7zm12.85-29.23h-.1l-2.42 16h4.85zM378.71 99.56V63.85h8.38v28.57h10.23v7.14zM210.22 136v4.53c0 1.33.57 1.85 1.71 1.81s1.67-.29 1.62-1.29V112.2H222V137c0 2.53.14 5.29-1.1 7.67-1.76 3.28-4.9 4-8.52 4-4 0-7.48-1.9-8.48-5.9a18.78 18.78 0 01-.38-4.81V136zM248.92 136.51c0 8-2.81 12.23-11.28 12.23s-11.43-4.19-11.43-12.23V122c0-6.86 4.1-10.67 11.43-10.67s11.28 3.81 11.28 10.67zm-8.38-13.95c0-2.19-.19-4.81-2.95-4.81s-3 2.62-3 4.81v14.66c0 2.05.33 5.1 3 5.1s2.9-3 2.9-5.1zM261.16 147.89h-8.38v-35.71H265c6.86 0 10.29 2.76 10.29 9.86 0 3.8-.91 6.52-4.43 8.14v.09a4.92 4.92 0 014.14 4.62c.24 2.86.29 9 .76 11.28a3.08 3.08 0 00.81 1.24v.48h-9.14a7.63 7.63 0 01-.47-2c-.15-3.14 0-6.09-.19-8.28s-.91-3.62-2.86-3.77h-2.76zm0-20.52H264c2.42 0 3-2.24 3-4.43 0-4.24-1.76-4.43-5.85-4.33zM286.58 127.89l-.09.1.76 19.9h-7.95v-35.71h8.62l6.47 19.95h.14l-.81-19.95h7.95v35.71h-8.57zM304.15 147.89l7.85-35.71h10.09l7.76 35.71h-8.47l-1.19-6.95h-6.57l-1 6.95zM317 118.66h-.1l-2.43 16h4.86zM332 147.89v-35.71h8.37v28.57h10.24v7.14zM353.76 147.89v-35.71h8.38v35.71zM373.09 135.94v2.52c0 2 .67 3.86 3.33 3.86 2 0 2.81-1.77 2.81-3.57 0-3-2.47-4.15-4.66-5.48a24.52 24.52 0 01-6.34-4.66 10.45 10.45 0 01-2.42-7.15c0-6.71 4-10.14 10.52-10.14 7.28 0 11 4.86 10.61 11.57h-7.71c-.09-2.09 0-5-2.76-5.14a2.48 2.48 0 00-2.9 2.38c-.24 2.14.85 3.24 2.52 4.38 3.14 2 5.86 3.24 7.81 5s3.09 4.19 3.09 8.52c0 6.86-3.81 10.66-10.76 10.66-7.66 0-10.9-4.28-10.9-9v-3.81zM389.42 112.18h21.71v7.14h-6.76v28.57H396v-28.57h-6.57zM410 147.89l7.81-35.71h10.09l7.76 35.71h-8.47l-1.19-6.95h-6.57l-1 6.95zm12.85-29.23h-.09l-2.43 16h4.86zM227.78 184.84c0 8-2.81 12.23-11.28 12.23s-11.43-4.19-11.43-12.23v-14.52c0-6.86 4.1-10.67 11.43-10.67s11.28 3.81 11.28 10.67zm-8.38-14c0-2.19-.19-4.81-3-4.81s-3 2.62-3 4.81v14.66c0 2 .34 5.09 3.05 5.09s2.9-3 2.9-5.09zM238.16 184.27v2.52c0 2.05.67 3.85 3.34 3.85 1.95 0 2.81-1.76 2.81-3.57 0-3-2.48-4.14-4.67-5.47a24.09 24.09 0 01-6.33-4.67 10.4 10.4 0 01-2.43-7.14c0-6.71 4.05-10.14 10.52-10.14 7.29 0 11 4.86 10.62 11.57h-7.71c-.1-2.09 0-4.95-2.77-5.14a2.48 2.48 0 00-2.9 2.38c-.24 2.14.86 3.24 2.52 4.38 3.15 2 5.86 3.24 7.81 5s3.1 4.19 3.1 8.52c0 6.85-3.81 10.66-10.76 10.66-7.67 0-10.91-4.28-10.91-9v-3.8zM279.35 185.55h.09l2.62-25H290l-5.95 35.7h-9.43l-2.57-25.13H272l-2.76 25.13h-9.29l-6-35.7H262l2.52 25.09.09-.1 3.39-25h8.09zM290.06 196.21l7.81-35.7H308l7.76 35.7h-8.47l-1.19-7h-6.57l-1 7zM302.91 167h-.09l-2.43 16h4.86zM317.86 196.21v-35.7h8.38v28.56h10.24v7.14zM339.43 196.21v-35.7h9.09c3.05 0 6.72.09 9.43 1.67 3.24 1.9 3.76 5.37 3.76 8.8v15.86c0 3.57-1.14 6.19-3.57 7.71-2.19 1.43-4.85 1.66-7.43 1.66zm8.38-6.42c5.62.38 5.67-1.91 5.52-6.67v-11.66c0-4.19-1.43-4.43-5.52-4.52zM388.33 184.84c0 8-2.81 12.23-11.29 12.23s-11.42-4.19-11.42-12.23v-14.52c0-6.86 4.09-10.67 11.42-10.67s11.29 3.81 11.29 10.67zm-8.38-14c0-2.19-.19-4.81-2.95-4.81s-3 2.62-3 4.81v14.66c0 2 .33 5.09 3 5.09s2.91-3 2.91-5.09zM403.85 196.21v-35.7h8.38v28.56h10.23v7.14zM425.65 196.21v-35.7H434v35.7zM438.79 196.21v-35.7h11.81l4.33 21.09h.1l4.47-21.09h11.71v35.7h-8l.85-28H464l-5.91 28h-6.23l-5.76-28h-.1l.76 28zM473.93 196.21l7.81-35.7h10.09l7.76 35.7h-8.47l-1.19-7h-6.57l-1 7zM486.78 167h-.09l-2.43 16h4.86z"/>
    </g>
  </g>
</svg>
